<svg xmlns="http://www.w3.org/2000/svg" viewBox="0 0 1200 800" role="img" aria-label="Luxury bathroom linen setting">
  <defs>
    <linearGradient id="wall" x1="0" x2="1"><stop stop-color="#f7f4ef"/><stop offset="1" stop-color="#edf7f5"/></linearGradient>
    <filter id="s"><feDropShadow dx="0" dy="20" stdDeviation="20" flood-color="#1d3557" flood-opacity=".16"/></filter>
    <pattern id="grain" width="18" height="18" patternUnits="userSpaceOnUse"><circle cx="4" cy="4" r="1" fill="#fff" opacity=".45"/><circle cx="11" cy="12" r="1.2" fill="#caa75e" opacity=".18"/></pattern>
  </defs>
  <rect width="1200" height="800" fill="url(#wall)"/>
  <rect y="560" width="1200" height="240" fill="#d8c7af"/>
  <rect x="115" y="155" width="430" height="480" rx="8" fill="#ffffff" filter="url(#s)"/>
  <rect x="155" y="205" width="350" height="290" rx="12" fill="#e9f3f1"/>
  <rect x="650" y="240" width="360" height="88" rx="26" fill="#fff" filter="url(#s)"/>
  <rect x="650" y="240" width="360" height="88" rx="26" fill="url(#grain)"/>
  <rect x="610" y="320" width="445" height="105" rx="32" fill="#f6dfc8" filter="url(#s)"/>
  <rect x="610" y="320" width="445" height="105" rx="32" fill="url(#grain)"/>
  <rect x="675" y="416" width="330" height="92" rx="27" fill="#1d3557" filter="url(#s)"/>
  <rect x="675" y="416" width="330" height="92" rx="27" fill="url(#grain)" opacity=".35"/>
  <path d="M690 287h300M643 372h390M705 463h270" stroke="#caa75e" stroke-width="6" opacity=".65"/>
  <circle cx="247" cy="350" r="78" fill="#2a9d8f" opacity=".2"/>
  <circle cx="330" cy="350" r="78" fill="#f4a261" opacity=".2"/>
  <text x="835" y="615" text-anchor="middle" font-family="Montserrat, Arial" font-size="42" font-weight="700" fill="#17110a">Softness, delivered.</text>
</svg>
